<mxfile host="app.diagrams.net" modified="2024-02-12T19:15:51.648Z" agent="Mozilla/5.0 (Windows NT 10.0; Win64; x64) AppleWebKit/537.36 (KHTML, like Gecko) Chrome/121.0.0.0 Safari/537.36" etag="rpzjQjUtbLT1i40CdDBd" version="23.1.2" type="google">
  <diagram name="Page-1" id="Q_ESNnBYLeMeQJvuA3D9">
    <mxGraphModel dx="1434" dy="772" grid="1" gridSize="10" guides="1" tooltips="1" connect="1" arrows="1" fold="1" page="1" pageScale="1" pageWidth="850" pageHeight="1100" math="0" shadow="0">
      <root>
        <mxCell id="0" />
        <mxCell id="1" parent="0" />
        <mxCell id="P6g5XxgkcdY0fP6R7ayy-1" value="Users" style="swimlane;whiteSpace=wrap;html=1;labelBorderColor=default;" parent="1" vertex="1">
          <mxGeometry x="400" y="40" width="200" height="160" as="geometry" />
        </mxCell>
        <mxCell id="P6g5XxgkcdY0fP6R7ayy-3" value="PK&lt;span style=&quot;white-space: pre;&quot;&gt;&#x9;&lt;span style=&quot;white-space: pre;&quot;&gt;&#x9;&lt;/span&gt; &lt;/span&gt;&amp;nbsp; &amp;nbsp;user_id" style="rounded=0;whiteSpace=wrap;html=1;align=left;" parent="P6g5XxgkcdY0fP6R7ayy-1" vertex="1">
          <mxGeometry x="10" y="40" width="180" height="20" as="geometry" />
        </mxCell>
        <mxCell id="P6g5XxgkcdY0fP6R7ayy-5" value="username" style="rounded=0;whiteSpace=wrap;html=1;align=center;" parent="P6g5XxgkcdY0fP6R7ayy-1" vertex="1">
          <mxGeometry x="10" y="70" width="180" height="20" as="geometry" />
        </mxCell>
        <mxCell id="P6g5XxgkcdY0fP6R7ayy-6" value="password_hash" style="rounded=0;whiteSpace=wrap;html=1;align=center;" parent="P6g5XxgkcdY0fP6R7ayy-1" vertex="1">
          <mxGeometry x="10" y="100" width="180" height="20" as="geometry" />
        </mxCell>
        <mxCell id="P6g5XxgkcdY0fP6R7ayy-7" value="role" style="rounded=0;whiteSpace=wrap;html=1;align=center;" parent="P6g5XxgkcdY0fP6R7ayy-1" vertex="1">
          <mxGeometry x="10" y="130" width="180" height="20" as="geometry" />
        </mxCell>
        <mxCell id="P6g5XxgkcdY0fP6R7ayy-8" value="Users&lt;br&gt;Decks&lt;br&gt;Cards&lt;br&gt;" style="rounded=0;whiteSpace=wrap;html=1;" parent="1" vertex="1">
          <mxGeometry x="940" y="10" width="290" height="160" as="geometry" />
        </mxCell>
        <mxCell id="P6g5XxgkcdY0fP6R7ayy-10" value="Decks" style="swimlane;whiteSpace=wrap;html=1;" parent="1" vertex="1">
          <mxGeometry x="140" y="240" width="200" height="250" as="geometry" />
        </mxCell>
        <mxCell id="P6g5XxgkcdY0fP6R7ayy-13" value="PK&lt;span style=&quot;white-space: pre;&quot;&gt;&#x9;&lt;/span&gt;&lt;span style=&quot;white-space: pre;&quot;&gt;&#x9;&amp;nbsp;&lt;/span&gt;&amp;nbsp; deck-id" style="rounded=0;whiteSpace=wrap;html=1;align=left;" parent="P6g5XxgkcdY0fP6R7ayy-10" vertex="1">
          <mxGeometry x="10" y="40" width="180" height="20" as="geometry" />
        </mxCell>
        <mxCell id="P6g5XxgkcdY0fP6R7ayy-14" value="FK&lt;span style=&quot;white-space: pre;&quot;&gt;&#x9;&lt;/span&gt;&lt;span style=&quot;white-space: pre;&quot;&gt;&#x9;&lt;/span&gt;&amp;nbsp; &amp;nbsp;user_id" style="rounded=0;whiteSpace=wrap;html=1;align=left;" parent="P6g5XxgkcdY0fP6R7ayy-10" vertex="1">
          <mxGeometry x="10" y="70" width="180" height="20" as="geometry" />
        </mxCell>
        <mxCell id="P6g5XxgkcdY0fP6R7ayy-18" value="title" style="rounded=0;whiteSpace=wrap;html=1;align=center;" parent="P6g5XxgkcdY0fP6R7ayy-10" vertex="1">
          <mxGeometry x="10" y="100" width="180" height="20" as="geometry" />
        </mxCell>
        <mxCell id="P6g5XxgkcdY0fP6R7ayy-19" value="tags" style="rounded=0;whiteSpace=wrap;html=1;align=center;" parent="P6g5XxgkcdY0fP6R7ayy-10" vertex="1">
          <mxGeometry x="10" y="130" width="180" height="20" as="geometry" />
        </mxCell>
        <mxCell id="P6g5XxgkcdY0fP6R7ayy-24" value="card-id" style="rounded=0;whiteSpace=wrap;html=1;align=center;" parent="P6g5XxgkcdY0fP6R7ayy-10" vertex="1">
          <mxGeometry x="10" y="160" width="180" height="20" as="geometry" />
        </mxCell>
        <mxCell id="P6g5XxgkcdY0fP6R7ayy-28" value="description" style="rounded=0;whiteSpace=wrap;html=1;align=center;" parent="P6g5XxgkcdY0fP6R7ayy-10" vertex="1">
          <mxGeometry x="10" y="190" width="180" height="20" as="geometry" />
        </mxCell>
        <mxCell id="m7pOA5EqZN074VD0fH4F-6" value="image" style="rounded=0;whiteSpace=wrap;html=1;align=center;" parent="P6g5XxgkcdY0fP6R7ayy-10" vertex="1">
          <mxGeometry x="10" y="220" width="180" height="20" as="geometry" />
        </mxCell>
        <mxCell id="P6g5XxgkcdY0fP6R7ayy-11" value="Cards" style="swimlane;whiteSpace=wrap;html=1;" parent="1" vertex="1">
          <mxGeometry x="660" y="240" width="200" height="290" as="geometry" />
        </mxCell>
        <mxCell id="P6g5XxgkcdY0fP6R7ayy-20" value="PK&amp;nbsp;&lt;span style=&quot;white-space: pre;&quot;&gt;&#x9;&lt;/span&gt;&lt;span style=&quot;white-space: pre;&quot;&gt;&#x9;&lt;/span&gt;&amp;nbsp; &amp;nbsp;card_id" style="rounded=0;whiteSpace=wrap;html=1;align=left;" parent="P6g5XxgkcdY0fP6R7ayy-11" vertex="1">
          <mxGeometry x="10" y="40" width="180" height="20" as="geometry" />
        </mxCell>
        <mxCell id="P6g5XxgkcdY0fP6R7ayy-21" value="FK&lt;span style=&quot;white-space: pre;&quot;&gt;&#x9;&lt;/span&gt;&lt;span style=&quot;white-space: pre;&quot;&gt;&#x9;&lt;/span&gt;&amp;nbsp; &amp;nbsp;username" style="rounded=0;whiteSpace=wrap;html=1;align=left;" parent="P6g5XxgkcdY0fP6R7ayy-11" vertex="1">
          <mxGeometry x="10" y="70" width="180" height="20" as="geometry" />
        </mxCell>
        <mxCell id="P6g5XxgkcdY0fP6R7ayy-22" value="front_text" style="rounded=0;whiteSpace=wrap;html=1;align=center;" parent="P6g5XxgkcdY0fP6R7ayy-11" vertex="1">
          <mxGeometry x="10" y="100" width="180" height="20" as="geometry" />
        </mxCell>
        <mxCell id="P6g5XxgkcdY0fP6R7ayy-23" value="back_text" style="rounded=0;whiteSpace=wrap;html=1;align=center;" parent="P6g5XxgkcdY0fP6R7ayy-11" vertex="1">
          <mxGeometry x="10" y="130" width="180" height="20" as="geometry" />
        </mxCell>
        <mxCell id="P6g5XxgkcdY0fP6R7ayy-25" value="front_img" style="rounded=0;whiteSpace=wrap;html=1;align=center;" parent="P6g5XxgkcdY0fP6R7ayy-11" vertex="1">
          <mxGeometry x="10" y="160" width="180" height="20" as="geometry" />
        </mxCell>
        <mxCell id="P6g5XxgkcdY0fP6R7ayy-26" value="back_img" style="rounded=0;whiteSpace=wrap;html=1;align=center;" parent="P6g5XxgkcdY0fP6R7ayy-11" vertex="1">
          <mxGeometry x="10" y="190" width="180" height="20" as="geometry" />
        </mxCell>
        <mxCell id="P6g5XxgkcdY0fP6R7ayy-29" value="access" style="rounded=0;whiteSpace=wrap;html=1;align=center;" parent="P6g5XxgkcdY0fP6R7ayy-11" vertex="1">
          <mxGeometry x="10" y="250" width="180" height="20" as="geometry" />
        </mxCell>
        <mxCell id="m7pOA5EqZN074VD0fH4F-5" value="tags/categories" style="rounded=0;whiteSpace=wrap;html=1;align=center;" parent="P6g5XxgkcdY0fP6R7ayy-11" vertex="1">
          <mxGeometry x="10" y="220" width="180" height="20" as="geometry" />
        </mxCell>
        <mxCell id="m7pOA5EqZN074VD0fH4F-1" value="" style="endArrow=classic;html=1;rounded=0;exitX=1;exitY=0.5;exitDx=0;exitDy=0;" parent="1" source="P6g5XxgkcdY0fP6R7ayy-1" edge="1">
          <mxGeometry width="50" height="50" relative="1" as="geometry">
            <mxPoint x="600" y="90" as="sourcePoint" />
            <mxPoint x="860" y="320" as="targetPoint" />
            <Array as="points">
              <mxPoint x="640" y="120" />
              <mxPoint x="880" y="120" />
              <mxPoint x="880" y="320" />
            </Array>
          </mxGeometry>
        </mxCell>
        <mxCell id="m7pOA5EqZN074VD0fH4F-2" value="" style="endArrow=classic;html=1;rounded=0;" parent="1" edge="1">
          <mxGeometry width="50" height="50" relative="1" as="geometry">
            <mxPoint x="400" y="90" as="sourcePoint" />
            <mxPoint x="340" y="330" as="targetPoint" />
            <Array as="points">
              <mxPoint x="400" y="90" />
              <mxPoint x="380" y="90" />
              <mxPoint x="380" y="330" />
            </Array>
          </mxGeometry>
        </mxCell>
        <mxCell id="m7pOA5EqZN074VD0fH4F-3" value="" style="endArrow=classic;html=1;rounded=0;" parent="1" edge="1">
          <mxGeometry width="50" height="50" relative="1" as="geometry">
            <mxPoint x="660" y="290" as="sourcePoint" />
            <mxPoint x="340" y="410" as="targetPoint" />
            <Array as="points">
              <mxPoint x="500" y="290" />
              <mxPoint x="500" y="410" />
            </Array>
          </mxGeometry>
        </mxCell>
      </root>
    </mxGraphModel>
  </diagram>
</mxfile>
